<?xml version="1.0" standalone="no"?><!DOCTYPE svg PUBLIC "-//W3C//DTD SVG 1.1//EN" "http://www.w3.org/Graphics/SVG/1.1/DTD/svg11.dtd"><svg t="1568081302349" class="icon" viewBox="0 0 1024 1024" version="1.1" xmlns="http://www.w3.org/2000/svg" p-id="747" xmlns:xlink="http://www.w3.org/1999/xlink" width="200" height="200"><defs><style type="text/css"></style></defs><path d="M307.3024 247.808h95.232c42.496 0 76.9024 34.4576 76.9024 76.9536v95.232c0 42.496-34.4064 76.9024-76.8512 76.9024H307.3024c-42.496 0-76.9024-34.4064-76.9024-76.9024v-95.232c0-42.496 34.4064-76.9024 76.9024-76.9024z m447.8464 40.5504c36.7616 21.248 49.3568 68.2496 28.16 105.0112l-47.616 82.5344a76.9024 76.9024 0 0 1-105.0624 28.16l-82.5344-47.616a76.9024 76.9024 0 0 1-28.16-105.0624l47.616-82.5344a76.9024 76.9024 0 0 1 105.0624-28.16l82.5344 47.616z m-447.8464 256.2048h95.232c42.496 0 76.9024 34.4064 76.9024 76.8512v95.2832c0 42.496-34.4064 76.9024-76.8512 76.9024H307.3024c-42.496 0-76.9024-34.4064-76.9024-76.9024v-95.232c0-42.496 34.4064-76.9024 76.9024-76.9024z m296.704 0h95.232c42.496 0 76.9024 34.4064 76.9024 76.8512v95.2832c0 42.496-34.4064 76.9024-76.9024 76.9024h-95.232c-42.496 0-76.9024-34.4064-76.9024-76.9024v-95.232c0-42.496 34.4064-76.9024 76.9024-76.9024z" p-id="748" fill="#8a8a8a"></path></svg>